<mxfile host="Electron" modified="2024-03-21T13:11:17.470Z" agent="Mozilla/5.0 (Windows NT 10.0; Win64; x64) AppleWebKit/537.36 (KHTML, like Gecko) draw.io/24.0.4 Chrome/120.0.6099.109 Electron/28.1.0 Safari/537.36" etag="tFJsN48XKr3YgRzv1SL3" version="24.0.4" type="device" pages="7">
  <diagram id="Rp2NDlzOlhKS_G9DzCgf" name="Package overview">
    <mxGraphModel dx="1434" dy="1954" grid="1" gridSize="10" guides="1" tooltips="1" connect="1" arrows="1" fold="1" page="1" pageScale="1" pageWidth="850" pageHeight="1100" math="0" shadow="0">
      <root>
        <mxCell id="0" />
        <mxCell id="1" parent="0" />
        <mxCell id="DDgb_ZeBUq6CpwSrKfSQ-1" value="USER" style="shape=umlActor;verticalLabelPosition=bottom;verticalAlign=top;html=1;outlineConnect=0;" parent="1" vertex="1">
          <mxGeometry x="439" y="-10" width="30" height="60" as="geometry" />
        </mxCell>
        <mxCell id="DDgb_ZeBUq6CpwSrKfSQ-2" value="RA2CE" style="swimlane;rotation=0;" parent="1" vertex="1">
          <mxGeometry x="90" y="120" width="750" height="510" as="geometry" />
        </mxCell>
        <mxCell id="DDgb_ZeBUq6CpwSrKfSQ-6" value="" style="edgeStyle=orthogonalEdgeStyle;rounded=0;orthogonalLoop=1;jettySize=auto;html=1;" parent="DDgb_ZeBUq6CpwSrKfSQ-2" edge="1">
          <mxGeometry relative="1" as="geometry">
            <Array as="points">
              <mxPoint x="733" y="340" />
              <mxPoint x="540" y="340" />
            </Array>
            <mxPoint x="733" y="320" as="sourcePoint" />
          </mxGeometry>
        </mxCell>
        <mxCell id="DDgb_ZeBUq6CpwSrKfSQ-8" value="Contributor" style="shape=umlActor;verticalLabelPosition=bottom;verticalAlign=top;html=1;outlineConnect=0;rotation=0;" parent="DDgb_ZeBUq6CpwSrKfSQ-2" vertex="1">
          <mxGeometry x="80" y="70" width="30" height="60" as="geometry" />
        </mxCell>
        <mxCell id="DDgb_ZeBUq6CpwSrKfSQ-9" value="" style="group;rotation=90;direction=west;" parent="DDgb_ZeBUq6CpwSrKfSQ-2" vertex="1" connectable="0">
          <mxGeometry x="1110" y="160" width="520" height="290" as="geometry" />
        </mxCell>
        <mxCell id="DDgb_ZeBUq6CpwSrKfSQ-10" value="ConfigWrapper" style="rounded=0;whiteSpace=wrap;html=1;rotation=0;" parent="DDgb_ZeBUq6CpwSrKfSQ-9" vertex="1">
          <mxGeometry x="200" width="120" height="60" as="geometry" />
        </mxCell>
        <mxCell id="DDgb_ZeBUq6CpwSrKfSQ-11" value="AnalysisConfig" style="rounded=0;whiteSpace=wrap;html=1;rotation=0;" parent="DDgb_ZeBUq6CpwSrKfSQ-9" vertex="1">
          <mxGeometry x="70" y="120" width="120" height="60" as="geometry" />
        </mxCell>
        <mxCell id="DDgb_ZeBUq6CpwSrKfSQ-12" value="NetworkConfig" style="whiteSpace=wrap;html=1;rounded=0;rotation=0;" parent="DDgb_ZeBUq6CpwSrKfSQ-9" vertex="1">
          <mxGeometry x="320" y="120" width="120" height="60" as="geometry" />
        </mxCell>
        <mxCell id="DDgb_ZeBUq6CpwSrKfSQ-13" value="DirectAnalysis" style="rounded=0;whiteSpace=wrap;html=1;rotation=0;" parent="DDgb_ZeBUq6CpwSrKfSQ-9" vertex="1">
          <mxGeometry y="230" width="120" height="60" as="geometry" />
        </mxCell>
        <mxCell id="DDgb_ZeBUq6CpwSrKfSQ-14" value="IndirectAnalysis" style="rounded=0;whiteSpace=wrap;html=1;rotation=0;" parent="DDgb_ZeBUq6CpwSrKfSQ-9" vertex="1">
          <mxGeometry x="130" y="230" width="120" height="60" as="geometry" />
        </mxCell>
        <mxCell id="DDgb_ZeBUq6CpwSrKfSQ-15" value="Network" style="rounded=0;whiteSpace=wrap;html=1;rotation=0;" parent="DDgb_ZeBUq6CpwSrKfSQ-9" vertex="1">
          <mxGeometry x="260" y="230" width="120" height="60" as="geometry" />
        </mxCell>
        <mxCell id="DDgb_ZeBUq6CpwSrKfSQ-16" value="Hazard" style="rounded=0;whiteSpace=wrap;html=1;rotation=0;" parent="DDgb_ZeBUq6CpwSrKfSQ-9" vertex="1">
          <mxGeometry x="400" y="230" width="120" height="60" as="geometry" />
        </mxCell>
        <mxCell id="DDgb_ZeBUq6CpwSrKfSQ-17" style="edgeStyle=orthogonalEdgeStyle;rounded=0;orthogonalLoop=1;jettySize=auto;html=1;exitX=0.5;exitY=1;exitDx=0;exitDy=0;" parent="DDgb_ZeBUq6CpwSrKfSQ-9" source="DDgb_ZeBUq6CpwSrKfSQ-10" target="DDgb_ZeBUq6CpwSrKfSQ-11" edge="1">
          <mxGeometry relative="1" as="geometry">
            <Array as="points">
              <mxPoint x="260" y="85" />
              <mxPoint x="130" y="85" />
            </Array>
          </mxGeometry>
        </mxCell>
        <mxCell id="DDgb_ZeBUq6CpwSrKfSQ-18" value="" style="edgeStyle=orthogonalEdgeStyle;rounded=0;orthogonalLoop=1;jettySize=auto;html=1;" parent="DDgb_ZeBUq6CpwSrKfSQ-9" source="DDgb_ZeBUq6CpwSrKfSQ-10" target="DDgb_ZeBUq6CpwSrKfSQ-12" edge="1">
          <mxGeometry relative="1" as="geometry">
            <Array as="points" />
          </mxGeometry>
        </mxCell>
        <mxCell id="DDgb_ZeBUq6CpwSrKfSQ-19" style="edgeStyle=orthogonalEdgeStyle;rounded=0;orthogonalLoop=1;jettySize=auto;html=1;exitX=0.5;exitY=1;exitDx=0;exitDy=0;" parent="DDgb_ZeBUq6CpwSrKfSQ-9" source="DDgb_ZeBUq6CpwSrKfSQ-11" target="DDgb_ZeBUq6CpwSrKfSQ-13" edge="1">
          <mxGeometry relative="1" as="geometry" />
        </mxCell>
        <mxCell id="DDgb_ZeBUq6CpwSrKfSQ-20" style="edgeStyle=orthogonalEdgeStyle;rounded=0;orthogonalLoop=1;jettySize=auto;html=1;exitX=0.5;exitY=1;exitDx=0;exitDy=0;" parent="DDgb_ZeBUq6CpwSrKfSQ-9" source="DDgb_ZeBUq6CpwSrKfSQ-11" target="DDgb_ZeBUq6CpwSrKfSQ-14" edge="1">
          <mxGeometry relative="1" as="geometry" />
        </mxCell>
        <mxCell id="DDgb_ZeBUq6CpwSrKfSQ-21" style="edgeStyle=orthogonalEdgeStyle;rounded=0;orthogonalLoop=1;jettySize=auto;html=1;exitX=0.5;exitY=1;exitDx=0;exitDy=0;" parent="DDgb_ZeBUq6CpwSrKfSQ-9" source="DDgb_ZeBUq6CpwSrKfSQ-12" target="DDgb_ZeBUq6CpwSrKfSQ-15" edge="1">
          <mxGeometry relative="1" as="geometry" />
        </mxCell>
        <mxCell id="DDgb_ZeBUq6CpwSrKfSQ-22" style="edgeStyle=orthogonalEdgeStyle;rounded=0;orthogonalLoop=1;jettySize=auto;html=1;exitX=0.5;exitY=1;exitDx=0;exitDy=0;" parent="DDgb_ZeBUq6CpwSrKfSQ-9" source="DDgb_ZeBUq6CpwSrKfSQ-12" target="DDgb_ZeBUq6CpwSrKfSQ-16" edge="1">
          <mxGeometry relative="1" as="geometry" />
        </mxCell>
        <mxCell id="DDgb_ZeBUq6CpwSrKfSQ-40" value="analysis" style="shape=folder;fontStyle=1;spacingTop=10;tabWidth=40;tabHeight=14;tabPosition=left;html=1;whiteSpace=wrap;" parent="DDgb_ZeBUq6CpwSrKfSQ-2" vertex="1">
          <mxGeometry x="80" y="210" width="100" height="70" as="geometry" />
        </mxCell>
        <mxCell id="DDgb_ZeBUq6CpwSrKfSQ-42" value="ra2ce_handler" style="shape=module;align=left;spacingLeft=20;align=center;verticalAlign=top;whiteSpace=wrap;html=1;" parent="DDgb_ZeBUq6CpwSrKfSQ-2" vertex="1">
          <mxGeometry x="235" y="100" width="100" height="50" as="geometry" />
        </mxCell>
        <mxCell id="DDgb_ZeBUq6CpwSrKfSQ-43" value="ra2ce_logger" style="shape=module;align=left;spacingLeft=20;align=center;verticalAlign=top;whiteSpace=wrap;html=1;" parent="DDgb_ZeBUq6CpwSrKfSQ-2" vertex="1">
          <mxGeometry x="380" y="100" width="100" height="50" as="geometry" />
        </mxCell>
        <mxCell id="DDgb_ZeBUq6CpwSrKfSQ-44" value="common" style="shape=folder;fontStyle=1;spacingTop=10;tabWidth=40;tabHeight=14;tabPosition=left;html=1;whiteSpace=wrap;" parent="DDgb_ZeBUq6CpwSrKfSQ-2" vertex="1">
          <mxGeometry x="190" y="350" width="100" height="70" as="geometry" />
        </mxCell>
        <mxCell id="DDgb_ZeBUq6CpwSrKfSQ-45" value="network" style="shape=folder;fontStyle=1;spacingTop=10;tabWidth=40;tabHeight=14;tabPosition=left;html=1;whiteSpace=wrap;" parent="DDgb_ZeBUq6CpwSrKfSQ-2" vertex="1">
          <mxGeometry x="260" y="210" width="100" height="70" as="geometry" />
        </mxCell>
        <mxCell id="DDgb_ZeBUq6CpwSrKfSQ-46" value="runners" style="shape=folder;fontStyle=1;spacingTop=10;tabWidth=40;tabHeight=14;tabPosition=left;html=1;whiteSpace=wrap;" parent="DDgb_ZeBUq6CpwSrKfSQ-2" vertex="1">
          <mxGeometry x="440" y="210" width="100" height="70" as="geometry" />
        </mxCell>
        <mxCell id="DDgb_ZeBUq6CpwSrKfSQ-49" value="configuration" style="shape=folder;fontStyle=1;spacingTop=10;tabWidth=40;tabHeight=14;tabPosition=left;html=1;whiteSpace=wrap;" parent="DDgb_ZeBUq6CpwSrKfSQ-2" vertex="1">
          <mxGeometry x="380" y="350" width="100" height="70" as="geometry" />
        </mxCell>
        <mxCell id="DDgb_ZeBUq6CpwSrKfSQ-39" style="edgeStyle=orthogonalEdgeStyle;rounded=0;orthogonalLoop=1;jettySize=auto;html=1;entryX=0.485;entryY=0.002;entryDx=0;entryDy=0;entryPerimeter=0;" parent="1" source="DDgb_ZeBUq6CpwSrKfSQ-1" target="DDgb_ZeBUq6CpwSrKfSQ-2" edge="1">
          <mxGeometry relative="1" as="geometry" />
        </mxCell>
      </root>
    </mxGraphModel>
  </diagram>
  <diagram id="f84udX-HMIuU50X7jIV-" name="analysis">
    <mxGraphModel dx="989" dy="589" grid="1" gridSize="10" guides="1" tooltips="1" connect="1" arrows="1" fold="1" page="1" pageScale="1" pageWidth="1100" pageHeight="850" math="0" shadow="0">
      <root>
        <mxCell id="0" />
        <mxCell id="1" parent="0" />
        <mxCell id="kbGSK8YvZnMrt6RSUDQe-1" value="analysis" style="shape=folder;fontStyle=1;spacingTop=10;tabWidth=40;tabHeight=14;tabPosition=left;html=1;whiteSpace=wrap;verticalAlign=top;movable=1;resizable=1;rotatable=1;deletable=1;editable=1;locked=0;connectable=1;align=left;" parent="1" vertex="1">
          <mxGeometry x="80" y="160" width="1270" height="640" as="geometry" />
        </mxCell>
        <mxCell id="AL9Y4oGZbgkQe4OAnznB-5" value="" style="edgeStyle=orthogonalEdgeStyle;rounded=0;orthogonalLoop=1;jettySize=auto;html=1;endArrow=open;endFill=0;dashed=1;exitX=1;exitY=0.25;exitDx=0;exitDy=0;" edge="1" parent="1" source="Q3LGZ9pbvs5X4_79zKCm-5">
          <mxGeometry relative="1" as="geometry">
            <mxPoint x="800" y="320" as="targetPoint" />
            <Array as="points" />
          </mxGeometry>
        </mxCell>
        <mxCell id="Q3LGZ9pbvs5X4_79zKCm-5" value="AnalysisFactory" style="swimlane;fontStyle=1;align=center;verticalAlign=top;childLayout=stackLayout;horizontal=1;startSize=26;horizontalStack=0;resizeParent=1;resizeParentMax=0;resizeLast=0;collapsible=1;marginBottom=0;whiteSpace=wrap;html=1;" parent="1" vertex="1">
          <mxGeometry x="612" y="610" width="160" height="80" as="geometry">
            <mxRectangle x="200" y="250" width="130" height="30" as="alternateBounds" />
          </mxGeometry>
        </mxCell>
        <mxCell id="Q3LGZ9pbvs5X4_79zKCm-7" value="" style="line;strokeWidth=1;fillColor=none;align=left;verticalAlign=middle;spacingTop=-1;spacingLeft=3;spacingRight=3;rotatable=0;labelPosition=right;points=[];portConstraint=eastwest;strokeColor=inherit;" parent="Q3LGZ9pbvs5X4_79zKCm-5" vertex="1">
          <mxGeometry y="26" width="160" height="8" as="geometry" />
        </mxCell>
        <mxCell id="Q3LGZ9pbvs5X4_79zKCm-8" value="+ &lt;u&gt;get_direct_analysis()&lt;/u&gt;&lt;div&gt;+ &lt;u&gt;get_indirect_analysis()&lt;/u&gt;&lt;/div&gt;" style="text;strokeColor=none;fillColor=none;align=left;verticalAlign=top;spacingLeft=4;spacingRight=4;overflow=hidden;rotatable=0;points=[[0,0.5],[1,0.5]];portConstraint=eastwest;whiteSpace=wrap;html=1;" parent="Q3LGZ9pbvs5X4_79zKCm-5" vertex="1">
          <mxGeometry y="34" width="160" height="46" as="geometry" />
        </mxCell>
        <mxCell id="Q3LGZ9pbvs5X4_79zKCm-9" value="AnalysisInputWrapper" style="swimlane;fontStyle=1;align=center;verticalAlign=top;childLayout=stackLayout;horizontal=1;startSize=26;horizontalStack=0;resizeParent=1;resizeParentMax=0;resizeLast=0;collapsible=1;marginBottom=0;whiteSpace=wrap;html=1;" parent="1" vertex="1">
          <mxGeometry x="870" y="598" width="160" height="104" as="geometry">
            <mxRectangle x="200" y="250" width="130" height="30" as="alternateBounds" />
          </mxGeometry>
        </mxCell>
        <mxCell id="Q3LGZ9pbvs5X4_79zKCm-101" style="edgeStyle=orthogonalEdgeStyle;rounded=0;orthogonalLoop=1;jettySize=auto;html=1;endArrow=none;endFill=0;startArrow=diamondThin;startFill=0;exitX=-0.01;exitY=0.205;exitDx=0;exitDy=0;exitPerimeter=0;" parent="Q3LGZ9pbvs5X4_79zKCm-9" source="Q3LGZ9pbvs5X4_79zKCm-89" edge="1">
          <mxGeometry relative="1" as="geometry">
            <mxPoint x="-50" y="-278" as="targetPoint" />
          </mxGeometry>
        </mxCell>
        <mxCell id="Q3LGZ9pbvs5X4_79zKCm-104" value="1" style="edgeLabel;html=1;align=center;verticalAlign=middle;resizable=0;points=[];" parent="Q3LGZ9pbvs5X4_79zKCm-101" vertex="1" connectable="0">
          <mxGeometry x="-0.8703" relative="1" as="geometry">
            <mxPoint as="offset" />
          </mxGeometry>
        </mxCell>
        <mxCell id="Q3LGZ9pbvs5X4_79zKCm-89" value="+ analysis&lt;div&gt;+ graph_file&lt;/div&gt;" style="text;strokeColor=none;fillColor=none;align=left;verticalAlign=top;spacingLeft=4;spacingRight=4;overflow=hidden;rotatable=0;points=[[0,0.5],[1,0.5]];portConstraint=eastwest;whiteSpace=wrap;html=1;" parent="Q3LGZ9pbvs5X4_79zKCm-9" vertex="1">
          <mxGeometry y="26" width="160" height="44" as="geometry" />
        </mxCell>
        <mxCell id="Q3LGZ9pbvs5X4_79zKCm-10" value="" style="line;strokeWidth=1;fillColor=none;align=left;verticalAlign=middle;spacingTop=-1;spacingLeft=3;spacingRight=3;rotatable=0;labelPosition=right;points=[];portConstraint=eastwest;strokeColor=inherit;" parent="Q3LGZ9pbvs5X4_79zKCm-9" vertex="1">
          <mxGeometry y="70" width="160" height="8" as="geometry" />
        </mxCell>
        <mxCell id="Q3LGZ9pbvs5X4_79zKCm-90" value="+ &lt;u&gt;from_input()&lt;/u&gt;" style="text;strokeColor=none;fillColor=none;align=left;verticalAlign=top;spacingLeft=4;spacingRight=4;overflow=hidden;rotatable=0;points=[[0,0.5],[1,0.5]];portConstraint=eastwest;whiteSpace=wrap;html=1;" parent="Q3LGZ9pbvs5X4_79zKCm-9" vertex="1">
          <mxGeometry y="78" width="160" height="26" as="geometry" />
        </mxCell>
        <mxCell id="Q3LGZ9pbvs5X4_79zKCm-65" style="edgeStyle=orthogonalEdgeStyle;rounded=0;orthogonalLoop=1;jettySize=auto;html=1;entryX=0.5;entryY=1;entryDx=0;entryDy=0;endArrow=block;endFill=0;" parent="1" source="Q3LGZ9pbvs5X4_79zKCm-12" target="Q3LGZ9pbvs5X4_79zKCm-14" edge="1">
          <mxGeometry relative="1" as="geometry" />
        </mxCell>
        <mxCell id="Q3LGZ9pbvs5X4_79zKCm-12" value="&lt;p style=&quot;margin:0px;margin-top:4px;text-align:center;&quot;&gt;&lt;i&gt;&amp;lt;&amp;lt;Interface&amp;gt;&amp;gt;&lt;/i&gt;&lt;br&gt;&lt;b&gt;AnalysisDirectProtocol&lt;/b&gt;&lt;/p&gt;&lt;hr size=&quot;1&quot; style=&quot;border-style:solid;&quot;&gt;&lt;p style=&quot;margin:0px;margin-left:4px;&quot;&gt;&lt;br&gt;&lt;/p&gt;&lt;hr size=&quot;1&quot; style=&quot;border-style:solid;&quot;&gt;&lt;p style=&quot;margin:0px;margin-left:4px;&quot;&gt;&lt;br&gt;&lt;/p&gt;" style="verticalAlign=top;align=left;overflow=fill;html=1;whiteSpace=wrap;" parent="1" vertex="1">
          <mxGeometry x="110" y="462" width="160" height="80" as="geometry" />
        </mxCell>
        <mxCell id="Q3LGZ9pbvs5X4_79zKCm-23" style="edgeStyle=orthogonalEdgeStyle;rounded=0;orthogonalLoop=1;jettySize=auto;html=1;entryX=0.5;entryY=1;entryDx=0;entryDy=0;dashed=1;endArrow=block;endFill=0;" parent="1" source="Q3LGZ9pbvs5X4_79zKCm-20" target="Q3LGZ9pbvs5X4_79zKCm-12" edge="1">
          <mxGeometry relative="1" as="geometry" />
        </mxCell>
        <mxCell id="Q3LGZ9pbvs5X4_79zKCm-27" style="edgeStyle=orthogonalEdgeStyle;rounded=0;orthogonalLoop=1;jettySize=auto;html=1;entryX=0.5;entryY=1;entryDx=0;entryDy=0;endArrow=block;endFill=0;dashed=1;" parent="1" source="Q3LGZ9pbvs5X4_79zKCm-24" target="Q3LGZ9pbvs5X4_79zKCm-13" edge="1">
          <mxGeometry relative="1" as="geometry" />
        </mxCell>
        <mxCell id="Q3LGZ9pbvs5X4_79zKCm-41" style="edgeStyle=orthogonalEdgeStyle;rounded=0;orthogonalLoop=1;jettySize=auto;html=1;endArrow=open;endFill=0;" parent="1" source="Q3LGZ9pbvs5X4_79zKCm-30" target="Q3LGZ9pbvs5X4_79zKCm-5" edge="1">
          <mxGeometry relative="1" as="geometry" />
        </mxCell>
        <mxCell id="Q3LGZ9pbvs5X4_79zKCm-30" value="AnalysisCollection" style="swimlane;fontStyle=1;align=center;verticalAlign=top;childLayout=stackLayout;horizontal=1;startSize=26;horizontalStack=0;resizeParent=1;resizeParentMax=0;resizeLast=0;collapsible=1;marginBottom=0;whiteSpace=wrap;html=1;" parent="1" vertex="1">
          <mxGeometry x="612" y="385" width="160" height="104" as="geometry" />
        </mxCell>
        <mxCell id="Q3LGZ9pbvs5X4_79zKCm-31" value="+ direct_analyses&lt;div&gt;+ indirect_analyses&lt;/div&gt;" style="text;strokeColor=none;fillColor=none;align=left;verticalAlign=top;spacingLeft=4;spacingRight=4;overflow=hidden;rotatable=0;points=[[0,0.5],[1,0.5]];portConstraint=eastwest;whiteSpace=wrap;html=1;" parent="Q3LGZ9pbvs5X4_79zKCm-30" vertex="1">
          <mxGeometry y="26" width="160" height="44" as="geometry" />
        </mxCell>
        <mxCell id="Q3LGZ9pbvs5X4_79zKCm-32" value="" style="line;strokeWidth=1;fillColor=none;align=left;verticalAlign=middle;spacingTop=-1;spacingLeft=3;spacingRight=3;rotatable=0;labelPosition=right;points=[];portConstraint=eastwest;strokeColor=inherit;" parent="Q3LGZ9pbvs5X4_79zKCm-30" vertex="1">
          <mxGeometry y="70" width="160" height="8" as="geometry" />
        </mxCell>
        <mxCell id="Q3LGZ9pbvs5X4_79zKCm-64" value="+ &lt;u&gt;from_config()&lt;/u&gt;" style="text;strokeColor=none;fillColor=none;align=left;verticalAlign=top;spacingLeft=4;spacingRight=4;overflow=hidden;rotatable=0;points=[[0,0.5],[1,0.5]];portConstraint=eastwest;whiteSpace=wrap;html=1;" parent="Q3LGZ9pbvs5X4_79zKCm-30" vertex="1">
          <mxGeometry y="78" width="160" height="26" as="geometry" />
        </mxCell>
        <mxCell id="Q3LGZ9pbvs5X4_79zKCm-34" style="edgeStyle=orthogonalEdgeStyle;rounded=0;orthogonalLoop=1;jettySize=auto;html=1;endArrow=open;endFill=0;" parent="1" source="Q3LGZ9pbvs5X4_79zKCm-5" target="Q3LGZ9pbvs5X4_79zKCm-9" edge="1">
          <mxGeometry relative="1" as="geometry">
            <mxPoint x="1190" y="650.9920000000002" as="targetPoint" />
          </mxGeometry>
        </mxCell>
        <mxCell id="Q3LGZ9pbvs5X4_79zKCm-47" style="edgeStyle=orthogonalEdgeStyle;rounded=0;orthogonalLoop=1;jettySize=auto;html=1;entryX=0.5;entryY=0;entryDx=0;entryDy=0;endArrow=open;endFill=0;" parent="1" source="Q3LGZ9pbvs5X4_79zKCm-49" target="Q3LGZ9pbvs5X4_79zKCm-30" edge="1">
          <mxGeometry relative="1" as="geometry">
            <mxPoint x="240" y="170" as="sourcePoint" />
          </mxGeometry>
        </mxCell>
        <mxCell id="Q3LGZ9pbvs5X4_79zKCm-57" value="AnalysisResultWrapper" style="swimlane;fontStyle=1;align=center;verticalAlign=top;childLayout=stackLayout;horizontal=1;startSize=26;horizontalStack=0;resizeParent=1;resizeParentMax=0;resizeLast=0;collapsible=1;marginBottom=0;whiteSpace=wrap;html=1;" parent="1" vertex="1">
          <mxGeometry x="864" y="398" width="160" height="78" as="geometry" />
        </mxCell>
        <mxCell id="Q3LGZ9pbvs5X4_79zKCm-58" value="+ analysis_result&lt;div&gt;+ analysis&lt;/div&gt;" style="text;strokeColor=none;fillColor=none;align=left;verticalAlign=top;spacingLeft=4;spacingRight=4;overflow=hidden;rotatable=0;points=[[0,0.5],[1,0.5]];portConstraint=eastwest;whiteSpace=wrap;html=1;" parent="Q3LGZ9pbvs5X4_79zKCm-57" vertex="1">
          <mxGeometry y="26" width="160" height="44" as="geometry" />
        </mxCell>
        <mxCell id="Q3LGZ9pbvs5X4_79zKCm-59" value="" style="line;strokeWidth=1;fillColor=none;align=left;verticalAlign=middle;spacingTop=-1;spacingLeft=3;spacingRight=3;rotatable=0;labelPosition=right;points=[];portConstraint=eastwest;strokeColor=inherit;" parent="Q3LGZ9pbvs5X4_79zKCm-57" vertex="1">
          <mxGeometry y="70" width="160" height="8" as="geometry" />
        </mxCell>
        <mxCell id="Q3LGZ9pbvs5X4_79zKCm-96" style="edgeStyle=orthogonalEdgeStyle;rounded=0;orthogonalLoop=1;jettySize=auto;html=1;entryX=0;entryY=0.75;entryDx=0;entryDy=0;endArrow=none;endFill=0;startArrow=diamondThin;startFill=0;" parent="1" source="Q3LGZ9pbvs5X4_79zKCm-14" target="Q3LGZ9pbvs5X4_79zKCm-93" edge="1">
          <mxGeometry relative="1" as="geometry" />
        </mxCell>
        <mxCell id="Q3LGZ9pbvs5X4_79zKCm-97" value="1" style="edgeLabel;html=1;align=center;verticalAlign=middle;resizable=0;points=[];" parent="Q3LGZ9pbvs5X4_79zKCm-96" vertex="1" connectable="0">
          <mxGeometry x="-0.6521" y="-1" relative="1" as="geometry">
            <mxPoint x="-23" y="-1" as="offset" />
          </mxGeometry>
        </mxCell>
        <mxCell id="Q3LGZ9pbvs5X4_79zKCm-98" value="1" style="edgeLabel;html=1;align=center;verticalAlign=middle;resizable=0;points=[];" parent="Q3LGZ9pbvs5X4_79zKCm-96" vertex="1" connectable="0">
          <mxGeometry x="0.8819" y="-1" relative="1" as="geometry">
            <mxPoint as="offset" />
          </mxGeometry>
        </mxCell>
        <mxCell id="Q3LGZ9pbvs5X4_79zKCm-14" value="&lt;p style=&quot;margin:0px;margin-top:4px;text-align:center;&quot;&gt;&lt;i&gt;&amp;lt;&amp;lt;Interface&amp;gt;&amp;gt;&lt;/i&gt;&lt;br&gt;&lt;b&gt;AnalysisProtocol&lt;/b&gt;&lt;/p&gt;&lt;hr size=&quot;1&quot; style=&quot;border-style:solid;&quot;&gt;&lt;p style=&quot;margin:0px;margin-left:4px;&quot;&gt;+ graph_file&lt;/p&gt;&lt;p style=&quot;margin:0px;margin-left:4px;&quot;&gt;+ analysis&lt;/p&gt;&lt;hr size=&quot;1&quot; style=&quot;border-style:solid;&quot;&gt;&lt;p style=&quot;margin:0px;margin-left:4px;&quot;&gt;+ execute()&lt;/p&gt;" style="verticalAlign=top;align=left;overflow=fill;html=1;whiteSpace=wrap;" parent="1" vertex="1">
          <mxGeometry x="220" y="252" width="160" height="120" as="geometry" />
        </mxCell>
        <mxCell id="Q3LGZ9pbvs5X4_79zKCm-66" style="edgeStyle=orthogonalEdgeStyle;rounded=0;orthogonalLoop=1;jettySize=auto;html=1;entryX=0.5;entryY=1;entryDx=0;entryDy=0;endArrow=block;endFill=0;" parent="1" source="Q3LGZ9pbvs5X4_79zKCm-13" target="Q3LGZ9pbvs5X4_79zKCm-14" edge="1">
          <mxGeometry relative="1" as="geometry" />
        </mxCell>
        <mxCell id="Q3LGZ9pbvs5X4_79zKCm-13" value="&lt;p style=&quot;margin:0px;margin-top:4px;text-align:center;&quot;&gt;&lt;i&gt;&amp;lt;&amp;lt;Interface&amp;gt;&amp;gt;&lt;/i&gt;&lt;br&gt;&lt;b&gt;AnalysisIndirectProtocol&lt;/b&gt;&lt;/p&gt;&lt;hr size=&quot;1&quot; style=&quot;border-style:solid;&quot;&gt;&lt;p style=&quot;margin:0px;margin-left:4px;&quot;&gt;&lt;br&gt;&lt;/p&gt;&lt;hr size=&quot;1&quot; style=&quot;border-style:solid;&quot;&gt;&lt;p style=&quot;margin:0px;margin-left:4px;&quot;&gt;&lt;br&gt;&lt;/p&gt;" style="verticalAlign=top;align=left;overflow=fill;html=1;whiteSpace=wrap;" parent="1" vertex="1">
          <mxGeometry x="340" y="462" width="160" height="80" as="geometry" />
        </mxCell>
        <mxCell id="Q3LGZ9pbvs5X4_79zKCm-67" style="edgeStyle=orthogonalEdgeStyle;rounded=0;orthogonalLoop=1;jettySize=auto;html=1;exitX=0.002;exitY=0.682;exitDx=0;exitDy=0;entryX=0.75;entryY=0;entryDx=0;entryDy=0;startArrow=diamondThin;startFill=0;endArrow=none;endFill=0;exitPerimeter=0;" parent="1" source="Q3LGZ9pbvs5X4_79zKCm-31" target="Q3LGZ9pbvs5X4_79zKCm-13" edge="1">
          <mxGeometry relative="1" as="geometry" />
        </mxCell>
        <mxCell id="Q3LGZ9pbvs5X4_79zKCm-72" value="1" style="edgeLabel;html=1;align=center;verticalAlign=middle;resizable=0;points=[];" parent="Q3LGZ9pbvs5X4_79zKCm-67" vertex="1" connectable="0">
          <mxGeometry x="-0.5523" y="-1" relative="1" as="geometry">
            <mxPoint as="offset" />
          </mxGeometry>
        </mxCell>
        <mxCell id="Q3LGZ9pbvs5X4_79zKCm-74" value="0..*" style="edgeLabel;html=1;align=center;verticalAlign=middle;resizable=0;points=[];" parent="Q3LGZ9pbvs5X4_79zKCm-67" vertex="1" connectable="0">
          <mxGeometry x="0.5467" relative="1" as="geometry">
            <mxPoint as="offset" />
          </mxGeometry>
        </mxCell>
        <mxCell id="Q3LGZ9pbvs5X4_79zKCm-68" style="edgeStyle=orthogonalEdgeStyle;rounded=0;orthogonalLoop=1;jettySize=auto;html=1;entryX=0.75;entryY=0;entryDx=0;entryDy=0;startArrow=diamondThin;startFill=0;endArrow=none;endFill=0;exitX=0;exitY=0.5;exitDx=0;exitDy=0;" parent="1" source="Q3LGZ9pbvs5X4_79zKCm-31" target="Q3LGZ9pbvs5X4_79zKCm-12" edge="1">
          <mxGeometry relative="1" as="geometry">
            <mxPoint x="640" y="430" as="sourcePoint" />
            <mxPoint x="470" y="472" as="targetPoint" />
          </mxGeometry>
        </mxCell>
        <mxCell id="Q3LGZ9pbvs5X4_79zKCm-71" value="1" style="edgeLabel;html=1;align=center;verticalAlign=middle;resizable=0;points=[];" parent="Q3LGZ9pbvs5X4_79zKCm-68" vertex="1" connectable="0">
          <mxGeometry x="-0.769" y="-2" relative="1" as="geometry">
            <mxPoint as="offset" />
          </mxGeometry>
        </mxCell>
        <mxCell id="Q3LGZ9pbvs5X4_79zKCm-73" value="0..*" style="edgeLabel;html=1;align=center;verticalAlign=middle;resizable=0;points=[];" parent="Q3LGZ9pbvs5X4_79zKCm-68" vertex="1" connectable="0">
          <mxGeometry x="0.7769" y="-1" relative="1" as="geometry">
            <mxPoint as="offset" />
          </mxGeometry>
        </mxCell>
        <mxCell id="Q3LGZ9pbvs5X4_79zKCm-77" value="" style="group;align=left;" parent="1" vertex="1" connectable="0">
          <mxGeometry x="582" y="20" width="220" height="130" as="geometry" />
        </mxCell>
        <mxCell id="Q3LGZ9pbvs5X4_79zKCm-46" value="runners" style="shape=folder;fontStyle=1;spacingTop=10;tabWidth=40;tabHeight=14;tabPosition=left;html=1;whiteSpace=wrap;verticalAlign=top;align=left;" parent="Q3LGZ9pbvs5X4_79zKCm-77" vertex="1">
          <mxGeometry width="220" height="130" as="geometry" />
        </mxCell>
        <mxCell id="Q3LGZ9pbvs5X4_79zKCm-49" value="AnalysisRunner" style="swimlane;fontStyle=1;align=center;verticalAlign=top;childLayout=stackLayout;horizontal=1;startSize=26;horizontalStack=0;resizeParent=1;resizeParentMax=0;resizeLast=0;collapsible=1;marginBottom=0;whiteSpace=wrap;html=1;" parent="Q3LGZ9pbvs5X4_79zKCm-77" vertex="1">
          <mxGeometry x="30" y="42" width="160" height="60" as="geometry" />
        </mxCell>
        <mxCell id="Q3LGZ9pbvs5X4_79zKCm-51" value="" style="line;strokeWidth=1;fillColor=none;align=left;verticalAlign=middle;spacingTop=-1;spacingLeft=3;spacingRight=3;rotatable=0;labelPosition=right;points=[];portConstraint=eastwest;strokeColor=inherit;" parent="Q3LGZ9pbvs5X4_79zKCm-49" vertex="1">
          <mxGeometry y="26" width="160" height="8" as="geometry" />
        </mxCell>
        <mxCell id="Q3LGZ9pbvs5X4_79zKCm-52" value="+ run()" style="text;strokeColor=none;fillColor=none;align=left;verticalAlign=top;spacingLeft=4;spacingRight=4;overflow=hidden;rotatable=0;points=[[0,0.5],[1,0.5]];portConstraint=eastwest;whiteSpace=wrap;html=1;" parent="Q3LGZ9pbvs5X4_79zKCm-49" vertex="1">
          <mxGeometry y="34" width="160" height="26" as="geometry" />
        </mxCell>
        <mxCell id="Q3LGZ9pbvs5X4_79zKCm-80" style="edgeStyle=orthogonalEdgeStyle;rounded=0;orthogonalLoop=1;jettySize=auto;html=1;entryX=0.5;entryY=0;entryDx=0;entryDy=0;endArrow=open;endFill=0;" parent="1" source="Q3LGZ9pbvs5X4_79zKCm-46" target="Q3LGZ9pbvs5X4_79zKCm-57" edge="1">
          <mxGeometry relative="1" as="geometry" />
        </mxCell>
        <mxCell id="Q3LGZ9pbvs5X4_79zKCm-81" style="edgeStyle=orthogonalEdgeStyle;rounded=0;orthogonalLoop=1;jettySize=auto;html=1;entryX=0.5;entryY=1;entryDx=0;entryDy=0;endArrow=open;endFill=0;" parent="1" source="Q3LGZ9pbvs5X4_79zKCm-46" target="Q3LGZ9pbvs5X4_79zKCm-24" edge="1">
          <mxGeometry relative="1" as="geometry">
            <Array as="points">
              <mxPoint x="540" y="85" />
              <mxPoint x="540" y="710" />
              <mxPoint x="420" y="710" />
            </Array>
          </mxGeometry>
        </mxCell>
        <mxCell id="Q3LGZ9pbvs5X4_79zKCm-83" value="AnalysisResultWrapperExporter" style="swimlane;fontStyle=1;align=center;verticalAlign=top;childLayout=stackLayout;horizontal=1;startSize=26;horizontalStack=0;resizeParent=1;resizeParentMax=0;resizeLast=0;collapsible=1;marginBottom=0;whiteSpace=wrap;html=1;" parent="1" vertex="1">
          <mxGeometry x="1100" y="415" width="210" height="60" as="geometry" />
        </mxCell>
        <mxCell id="Q3LGZ9pbvs5X4_79zKCm-85" value="" style="line;strokeWidth=1;fillColor=none;align=left;verticalAlign=middle;spacingTop=-1;spacingLeft=3;spacingRight=3;rotatable=0;labelPosition=right;points=[];portConstraint=eastwest;strokeColor=inherit;" parent="Q3LGZ9pbvs5X4_79zKCm-83" vertex="1">
          <mxGeometry y="26" width="210" height="8" as="geometry" />
        </mxCell>
        <mxCell id="Q3LGZ9pbvs5X4_79zKCm-86" value="+ export_result()" style="text;strokeColor=none;fillColor=none;align=left;verticalAlign=top;spacingLeft=4;spacingRight=4;overflow=hidden;rotatable=0;points=[[0,0.5],[1,0.5]];portConstraint=eastwest;whiteSpace=wrap;html=1;" parent="Q3LGZ9pbvs5X4_79zKCm-83" vertex="1">
          <mxGeometry y="34" width="210" height="26" as="geometry" />
        </mxCell>
        <mxCell id="Q3LGZ9pbvs5X4_79zKCm-87" style="edgeStyle=orthogonalEdgeStyle;rounded=0;orthogonalLoop=1;jettySize=auto;html=1;" parent="1" source="Q3LGZ9pbvs5X4_79zKCm-46" target="Q3LGZ9pbvs5X4_79zKCm-83" edge="1">
          <mxGeometry relative="1" as="geometry" />
        </mxCell>
        <mxCell id="Q3LGZ9pbvs5X4_79zKCm-88" style="edgeStyle=orthogonalEdgeStyle;rounded=0;orthogonalLoop=1;jettySize=auto;html=1;entryX=0.5;entryY=1;entryDx=0;entryDy=0;endArrow=open;endFill=0;exitX=0.001;exitY=0.503;exitDx=0;exitDy=0;exitPerimeter=0;" parent="1" source="Q3LGZ9pbvs5X4_79zKCm-46" edge="1">
          <mxGeometry relative="1" as="geometry">
            <mxPoint x="500" y="100" as="sourcePoint" />
            <mxPoint x="190" y="670" as="targetPoint" />
            <Array as="points">
              <mxPoint x="540" y="85" />
              <mxPoint x="540" y="710" />
              <mxPoint x="190" y="710" />
            </Array>
          </mxGeometry>
        </mxCell>
        <mxCell id="Q3LGZ9pbvs5X4_79zKCm-91" value="" style="group;align=left;" parent="1" vertex="1" connectable="0">
          <mxGeometry x="710" y="242" width="220" height="130" as="geometry" />
        </mxCell>
        <mxCell id="Q3LGZ9pbvs5X4_79zKCm-93" value="AnalysisConfigData" style="swimlane;fontStyle=1;align=center;verticalAlign=top;childLayout=stackLayout;horizontal=1;startSize=26;horizontalStack=0;resizeParent=1;resizeParentMax=0;resizeLast=0;collapsible=1;marginBottom=0;whiteSpace=wrap;html=1;" parent="Q3LGZ9pbvs5X4_79zKCm-91" vertex="1">
          <mxGeometry x="30" y="45" width="160" height="34" as="geometry" />
        </mxCell>
        <mxCell id="Q3LGZ9pbvs5X4_79zKCm-94" value="" style="line;strokeWidth=1;fillColor=none;align=left;verticalAlign=middle;spacingTop=-1;spacingLeft=3;spacingRight=3;rotatable=0;labelPosition=right;points=[];portConstraint=eastwest;strokeColor=inherit;" parent="Q3LGZ9pbvs5X4_79zKCm-93" vertex="1">
          <mxGeometry y="26" width="160" height="8" as="geometry" />
        </mxCell>
        <mxCell id="Q3LGZ9pbvs5X4_79zKCm-99" style="edgeStyle=orthogonalEdgeStyle;rounded=0;orthogonalLoop=1;jettySize=auto;html=1;entryX=0.5;entryY=1;entryDx=0;entryDy=0;startArrow=diamondThin;startFill=0;endArrow=none;endFill=0;exitX=-0.005;exitY=0.678;exitDx=0;exitDy=0;exitPerimeter=0;" parent="1" source="Q3LGZ9pbvs5X4_79zKCm-58" target="Q3LGZ9pbvs5X4_79zKCm-93" edge="1">
          <mxGeometry relative="1" as="geometry" />
        </mxCell>
        <mxCell id="Q3LGZ9pbvs5X4_79zKCm-102" value="1" style="edgeLabel;html=1;align=center;verticalAlign=middle;resizable=0;points=[];" parent="Q3LGZ9pbvs5X4_79zKCm-99" vertex="1" connectable="0">
          <mxGeometry x="0.7696" y="1" relative="1" as="geometry">
            <mxPoint as="offset" />
          </mxGeometry>
        </mxCell>
        <mxCell id="Q3LGZ9pbvs5X4_79zKCm-103" value="1" style="edgeLabel;html=1;align=center;verticalAlign=middle;resizable=0;points=[];" parent="Q3LGZ9pbvs5X4_79zKCm-99" vertex="1" connectable="0">
          <mxGeometry x="-0.7836" y="-1" relative="1" as="geometry">
            <mxPoint as="offset" />
          </mxGeometry>
        </mxCell>
        <mxCell id="Q3LGZ9pbvs5X4_79zKCm-108" style="edgeStyle=orthogonalEdgeStyle;rounded=0;orthogonalLoop=1;jettySize=auto;html=1;entryX=1;entryY=0.5;entryDx=0;entryDy=0;dashed=1;endArrow=open;endFill=0;" parent="1" source="Q3LGZ9pbvs5X4_79zKCm-83" target="Q3LGZ9pbvs5X4_79zKCm-58" edge="1">
          <mxGeometry relative="1" as="geometry" />
        </mxCell>
        <mxCell id="Q3LGZ9pbvs5X4_79zKCm-109" value="&amp;lt;&amp;lt;use&amp;gt;&amp;gt;" style="edgeLabel;html=1;align=center;verticalAlign=middle;resizable=0;points=[];" parent="Q3LGZ9pbvs5X4_79zKCm-108" vertex="1" connectable="0">
          <mxGeometry x="-0.2641" y="1" relative="1" as="geometry">
            <mxPoint x="-12" as="offset" />
          </mxGeometry>
        </mxCell>
        <mxCell id="AL9Y4oGZbgkQe4OAnznB-1" value="..." style="swimlane;fontStyle=1;align=center;verticalAlign=top;childLayout=stackLayout;horizontal=1;startSize=26;horizontalStack=0;resizeParent=1;resizeParentMax=0;resizeLast=0;collapsible=1;marginBottom=0;whiteSpace=wrap;html=1;" vertex="1" parent="1">
          <mxGeometry x="140" y="620" width="160" height="34" as="geometry">
            <mxRectangle x="110" y="543" width="130" height="30" as="alternateBounds" />
          </mxGeometry>
        </mxCell>
        <mxCell id="AL9Y4oGZbgkQe4OAnznB-2" value="" style="line;strokeWidth=1;fillColor=none;align=left;verticalAlign=middle;spacingTop=-1;spacingLeft=3;spacingRight=3;rotatable=0;labelPosition=right;points=[];portConstraint=eastwest;strokeColor=inherit;" vertex="1" parent="AL9Y4oGZbgkQe4OAnznB-1">
          <mxGeometry y="26" width="160" height="8" as="geometry" />
        </mxCell>
        <mxCell id="Q3LGZ9pbvs5X4_79zKCm-20" value="Damage" style="swimlane;fontStyle=1;align=center;verticalAlign=top;childLayout=stackLayout;horizontal=1;startSize=26;horizontalStack=0;resizeParent=1;resizeParentMax=0;resizeLast=0;collapsible=1;marginBottom=0;whiteSpace=wrap;html=1;" parent="1" vertex="1">
          <mxGeometry x="110" y="633" width="160" height="34" as="geometry">
            <mxRectangle x="110" y="543" width="130" height="30" as="alternateBounds" />
          </mxGeometry>
        </mxCell>
        <mxCell id="Q3LGZ9pbvs5X4_79zKCm-21" value="" style="line;strokeWidth=1;fillColor=none;align=left;verticalAlign=middle;spacingTop=-1;spacingLeft=3;spacingRight=3;rotatable=0;labelPosition=right;points=[];portConstraint=eastwest;strokeColor=inherit;" parent="Q3LGZ9pbvs5X4_79zKCm-20" vertex="1">
          <mxGeometry y="26" width="160" height="8" as="geometry" />
        </mxCell>
        <mxCell id="AL9Y4oGZbgkQe4OAnznB-3" value="..." style="swimlane;fontStyle=1;align=center;verticalAlign=top;childLayout=stackLayout;horizontal=1;startSize=26;horizontalStack=0;resizeParent=1;resizeParentMax=0;resizeLast=0;collapsible=1;marginBottom=0;whiteSpace=wrap;html=1;" vertex="1" parent="1">
          <mxGeometry x="370" y="620" width="160" height="34" as="geometry">
            <mxRectangle x="110" y="543" width="130" height="30" as="alternateBounds" />
          </mxGeometry>
        </mxCell>
        <mxCell id="AL9Y4oGZbgkQe4OAnznB-4" value="" style="line;strokeWidth=1;fillColor=none;align=left;verticalAlign=middle;spacingTop=-1;spacingLeft=3;spacingRight=3;rotatable=0;labelPosition=right;points=[];portConstraint=eastwest;strokeColor=inherit;" vertex="1" parent="AL9Y4oGZbgkQe4OAnznB-3">
          <mxGeometry y="26" width="160" height="8" as="geometry" />
        </mxCell>
        <object label="Losses" id="Q3LGZ9pbvs5X4_79zKCm-24">
          <mxCell style="swimlane;fontStyle=1;align=center;verticalAlign=top;childLayout=stackLayout;horizontal=1;startSize=26;horizontalStack=0;resizeParent=1;resizeParentMax=0;resizeLast=0;collapsible=1;marginBottom=0;whiteSpace=wrap;html=1;" parent="1" vertex="1">
            <mxGeometry x="340" y="633" width="160" height="34" as="geometry">
              <mxRectangle x="200" y="250" width="130" height="30" as="alternateBounds" />
            </mxGeometry>
          </mxCell>
        </object>
        <mxCell id="Q3LGZ9pbvs5X4_79zKCm-25" value="" style="line;strokeWidth=1;fillColor=none;align=left;verticalAlign=middle;spacingTop=-1;spacingLeft=3;spacingRight=3;rotatable=0;labelPosition=right;points=[];portConstraint=eastwest;strokeColor=inherit;" parent="Q3LGZ9pbvs5X4_79zKCm-24" vertex="1">
          <mxGeometry y="26" width="160" height="8" as="geometry" />
        </mxCell>
        <mxCell id="AL9Y4oGZbgkQe4OAnznB-7" value="&amp;lt;&amp;lt;use&amp;gt;&amp;gt;" style="edgeStyle=orthogonalEdgeStyle;rounded=0;orthogonalLoop=1;jettySize=auto;html=1;endArrow=open;endFill=0;dashed=1;exitX=1;exitY=0.5;exitDx=0;exitDy=0;" edge="1" parent="1" source="Q3LGZ9pbvs5X4_79zKCm-31">
          <mxGeometry relative="1" as="geometry">
            <mxPoint x="800" y="320" as="targetPoint" />
            <mxPoint x="782" y="640" as="sourcePoint" />
            <Array as="points" />
          </mxGeometry>
        </mxCell>
      </root>
    </mxGraphModel>
  </diagram>
  <diagram id="_SzPEkcs4c-AnB0c7pbD" name="network">
    <mxGraphModel dx="1434" dy="790" grid="1" gridSize="10" guides="1" tooltips="1" connect="1" arrows="1" fold="1" page="1" pageScale="1" pageWidth="850" pageHeight="1100" math="0" shadow="0">
      <root>
        <mxCell id="0" />
        <mxCell id="1" parent="0" />
      </root>
    </mxGraphModel>
  </diagram>
  <diagram id="nIc-uuyCZ1bMmT14HSK6" name="General Overview">
    <mxGraphModel dx="1434" dy="790" grid="1" gridSize="10" guides="1" tooltips="1" connect="1" arrows="1" fold="1" page="1" pageScale="1" pageWidth="1100" pageHeight="850" math="0" shadow="0">
      <root>
        <mxCell id="0" />
        <mxCell id="1" parent="0" />
        <mxCell id="ljIQnTwFFSGdK2bvqgEi-79" style="edgeStyle=orthogonalEdgeStyle;rounded=0;orthogonalLoop=1;jettySize=auto;html=1;" parent="1" source="ljIQnTwFFSGdK2bvqgEi-1" target="ljIQnTwFFSGdK2bvqgEi-77" edge="1">
          <mxGeometry relative="1" as="geometry" />
        </mxCell>
        <mxCell id="ljIQnTwFFSGdK2bvqgEi-1" value="USER" style="shape=umlActor;verticalLabelPosition=bottom;verticalAlign=top;html=1;outlineConnect=0;" parent="1" vertex="1">
          <mxGeometry x="715" y="10" width="30" height="60" as="geometry" />
        </mxCell>
        <mxCell id="ljIQnTwFFSGdK2bvqgEi-77" value="RA2CE" style="swimlane;rotation=0;" parent="1" vertex="1">
          <mxGeometry x="20" y="160" width="1700" height="670" as="geometry" />
        </mxCell>
        <mxCell id="ljIQnTwFFSGdK2bvqgEi-18" value="ConfigFactory" style="rounded=0;whiteSpace=wrap;html=1;rotation=0;" parent="ljIQnTwFFSGdK2bvqgEi-77" vertex="1">
          <mxGeometry x="672" y="260" width="120" height="60" as="geometry" />
        </mxCell>
        <mxCell id="ljIQnTwFFSGdK2bvqgEi-65" style="edgeStyle=orthogonalEdgeStyle;rounded=0;orthogonalLoop=1;jettySize=auto;html=1;entryX=0.5;entryY=0;entryDx=0;entryDy=0;" parent="ljIQnTwFFSGdK2bvqgEi-77" target="ljIQnTwFFSGdK2bvqgEi-18" edge="1">
          <mxGeometry relative="1" as="geometry">
            <mxPoint x="520" y="180" as="sourcePoint" />
          </mxGeometry>
        </mxCell>
        <mxCell id="ljIQnTwFFSGdK2bvqgEi-29" value="" style="edgeStyle=orthogonalEdgeStyle;rounded=0;orthogonalLoop=1;jettySize=auto;html=1;" parent="ljIQnTwFFSGdK2bvqgEi-77" target="ljIQnTwFFSGdK2bvqgEi-28" edge="1">
          <mxGeometry relative="1" as="geometry">
            <mxPoint x="400" y="180" as="sourcePoint" />
          </mxGeometry>
        </mxCell>
        <mxCell id="ljIQnTwFFSGdK2bvqgEi-42" value="" style="edgeStyle=orthogonalEdgeStyle;rounded=0;orthogonalLoop=1;jettySize=auto;html=1;" parent="ljIQnTwFFSGdK2bvqgEi-77" source="ljIQnTwFFSGdK2bvqgEi-18" target="ljIQnTwFFSGdK2bvqgEi-41" edge="1">
          <mxGeometry relative="1" as="geometry">
            <Array as="points">
              <mxPoint x="733" y="340" />
              <mxPoint x="540" y="340" />
            </Array>
          </mxGeometry>
        </mxCell>
        <mxCell id="ljIQnTwFFSGdK2bvqgEi-45" value="" style="edgeStyle=orthogonalEdgeStyle;rounded=0;orthogonalLoop=1;jettySize=auto;html=1;entryX=0.5;entryY=0;entryDx=0;entryDy=0;" parent="ljIQnTwFFSGdK2bvqgEi-77" source="ljIQnTwFFSGdK2bvqgEi-18" target="ljIQnTwFFSGdK2bvqgEi-46" edge="1">
          <mxGeometry relative="1" as="geometry">
            <Array as="points">
              <mxPoint x="733" y="340" />
              <mxPoint x="850" y="340" />
            </Array>
            <mxPoint x="720" y="480" as="targetPoint" />
          </mxGeometry>
        </mxCell>
        <mxCell id="ljIQnTwFFSGdK2bvqgEi-80" value="Contributor" style="shape=umlActor;verticalLabelPosition=bottom;verticalAlign=top;html=1;outlineConnect=0;rotation=0;" parent="ljIQnTwFFSGdK2bvqgEi-77" vertex="1">
          <mxGeometry x="80" y="70" width="30" height="60" as="geometry" />
        </mxCell>
        <mxCell id="ljIQnTwFFSGdK2bvqgEi-95" value="" style="group;rotation=90;direction=west;" parent="ljIQnTwFFSGdK2bvqgEi-77" vertex="1" connectable="0">
          <mxGeometry x="1110" y="160" width="520" height="290" as="geometry" />
        </mxCell>
        <mxCell id="ljIQnTwFFSGdK2bvqgEi-8" value="ConfigWrapper" style="rounded=0;whiteSpace=wrap;html=1;rotation=0;" parent="ljIQnTwFFSGdK2bvqgEi-95" vertex="1">
          <mxGeometry x="200" width="120" height="60" as="geometry" />
        </mxCell>
        <mxCell id="ljIQnTwFFSGdK2bvqgEi-10" value="AnalysisConfig" style="rounded=0;whiteSpace=wrap;html=1;rotation=0;" parent="ljIQnTwFFSGdK2bvqgEi-95" vertex="1">
          <mxGeometry x="70" y="120" width="120" height="60" as="geometry" />
        </mxCell>
        <mxCell id="ljIQnTwFFSGdK2bvqgEi-12" value="NetworkConfig" style="whiteSpace=wrap;html=1;rounded=0;rotation=0;" parent="ljIQnTwFFSGdK2bvqgEi-95" vertex="1">
          <mxGeometry x="320" y="120" width="120" height="60" as="geometry" />
        </mxCell>
        <mxCell id="ljIQnTwFFSGdK2bvqgEi-82" value="DirectAnalysis" style="rounded=0;whiteSpace=wrap;html=1;rotation=0;" parent="ljIQnTwFFSGdK2bvqgEi-95" vertex="1">
          <mxGeometry y="230" width="120" height="60" as="geometry" />
        </mxCell>
        <mxCell id="ljIQnTwFFSGdK2bvqgEi-84" value="IndirectAnalysis" style="rounded=0;whiteSpace=wrap;html=1;rotation=0;" parent="ljIQnTwFFSGdK2bvqgEi-95" vertex="1">
          <mxGeometry x="130" y="230" width="120" height="60" as="geometry" />
        </mxCell>
        <mxCell id="ljIQnTwFFSGdK2bvqgEi-86" value="Network" style="rounded=0;whiteSpace=wrap;html=1;rotation=0;" parent="ljIQnTwFFSGdK2bvqgEi-95" vertex="1">
          <mxGeometry x="260" y="230" width="120" height="60" as="geometry" />
        </mxCell>
        <mxCell id="ljIQnTwFFSGdK2bvqgEi-85" value="Hazard" style="rounded=0;whiteSpace=wrap;html=1;rotation=0;" parent="ljIQnTwFFSGdK2bvqgEi-95" vertex="1">
          <mxGeometry x="400" y="230" width="120" height="60" as="geometry" />
        </mxCell>
        <mxCell id="ljIQnTwFFSGdK2bvqgEi-93" style="edgeStyle=orthogonalEdgeStyle;rounded=0;orthogonalLoop=1;jettySize=auto;html=1;exitX=0.5;exitY=1;exitDx=0;exitDy=0;" parent="ljIQnTwFFSGdK2bvqgEi-95" source="ljIQnTwFFSGdK2bvqgEi-8" target="ljIQnTwFFSGdK2bvqgEi-10" edge="1">
          <mxGeometry relative="1" as="geometry">
            <Array as="points">
              <mxPoint x="260" y="85" />
              <mxPoint x="130" y="85" />
            </Array>
          </mxGeometry>
        </mxCell>
        <mxCell id="ljIQnTwFFSGdK2bvqgEi-13" value="" style="edgeStyle=orthogonalEdgeStyle;rounded=0;orthogonalLoop=1;jettySize=auto;html=1;" parent="ljIQnTwFFSGdK2bvqgEi-95" source="ljIQnTwFFSGdK2bvqgEi-8" target="ljIQnTwFFSGdK2bvqgEi-12" edge="1">
          <mxGeometry relative="1" as="geometry">
            <Array as="points" />
          </mxGeometry>
        </mxCell>
        <mxCell id="ljIQnTwFFSGdK2bvqgEi-89" style="edgeStyle=orthogonalEdgeStyle;rounded=0;orthogonalLoop=1;jettySize=auto;html=1;exitX=0.5;exitY=1;exitDx=0;exitDy=0;" parent="ljIQnTwFFSGdK2bvqgEi-95" source="ljIQnTwFFSGdK2bvqgEi-10" target="ljIQnTwFFSGdK2bvqgEi-82" edge="1">
          <mxGeometry relative="1" as="geometry" />
        </mxCell>
        <mxCell id="ljIQnTwFFSGdK2bvqgEi-91" style="edgeStyle=orthogonalEdgeStyle;rounded=0;orthogonalLoop=1;jettySize=auto;html=1;exitX=0.5;exitY=1;exitDx=0;exitDy=0;" parent="ljIQnTwFFSGdK2bvqgEi-95" source="ljIQnTwFFSGdK2bvqgEi-10" target="ljIQnTwFFSGdK2bvqgEi-84" edge="1">
          <mxGeometry relative="1" as="geometry" />
        </mxCell>
        <mxCell id="ljIQnTwFFSGdK2bvqgEi-87" style="edgeStyle=orthogonalEdgeStyle;rounded=0;orthogonalLoop=1;jettySize=auto;html=1;exitX=0.5;exitY=1;exitDx=0;exitDy=0;" parent="ljIQnTwFFSGdK2bvqgEi-95" source="ljIQnTwFFSGdK2bvqgEi-12" target="ljIQnTwFFSGdK2bvqgEi-86" edge="1">
          <mxGeometry relative="1" as="geometry" />
        </mxCell>
        <mxCell id="ljIQnTwFFSGdK2bvqgEi-88" style="edgeStyle=orthogonalEdgeStyle;rounded=0;orthogonalLoop=1;jettySize=auto;html=1;exitX=0.5;exitY=1;exitDx=0;exitDy=0;" parent="ljIQnTwFFSGdK2bvqgEi-95" source="ljIQnTwFFSGdK2bvqgEi-12" target="ljIQnTwFFSGdK2bvqgEi-85" edge="1">
          <mxGeometry relative="1" as="geometry" />
        </mxCell>
        <mxCell id="ljIQnTwFFSGdK2bvqgEi-96" value="" style="group" parent="ljIQnTwFFSGdK2bvqgEi-77" vertex="1" connectable="0">
          <mxGeometry x="350" y="370" width="492" height="260" as="geometry" />
        </mxCell>
        <mxCell id="ljIQnTwFFSGdK2bvqgEi-98" value="" style="group" parent="ljIQnTwFFSGdK2bvqgEi-96" vertex="1" connectable="0">
          <mxGeometry x="90" y="40" width="200" height="150" as="geometry" />
        </mxCell>
        <mxCell id="ljIQnTwFFSGdK2bvqgEi-16" value="NetworkConfigData" style="whiteSpace=wrap;html=1;rounded=0;rotation=0;" parent="ljIQnTwFFSGdK2bvqgEi-98" vertex="1">
          <mxGeometry x="25" y="90" width="150" height="60" as="geometry" />
        </mxCell>
        <mxCell id="ljIQnTwFFSGdK2bvqgEi-41" value="NetworkConfigDataReader" style="whiteSpace=wrap;html=1;rounded=0;rotation=0;" parent="ljIQnTwFFSGdK2bvqgEi-98" vertex="1">
          <mxGeometry width="200" height="60" as="geometry" />
        </mxCell>
        <mxCell id="ljIQnTwFFSGdK2bvqgEi-53" style="edgeStyle=orthogonalEdgeStyle;rounded=0;orthogonalLoop=1;jettySize=auto;html=1;" parent="ljIQnTwFFSGdK2bvqgEi-98" source="ljIQnTwFFSGdK2bvqgEi-41" target="ljIQnTwFFSGdK2bvqgEi-16" edge="1">
          <mxGeometry relative="1" as="geometry" />
        </mxCell>
        <mxCell id="ljIQnTwFFSGdK2bvqgEi-97" value="" style="group" parent="ljIQnTwFFSGdK2bvqgEi-77" vertex="1" connectable="0">
          <mxGeometry x="50" y="260" width="310" height="280" as="geometry" />
        </mxCell>
        <mxCell id="ljIQnTwFFSGdK2bvqgEi-28" value="AnalysisRunnerFactory" style="whiteSpace=wrap;html=1;rounded=0;rotation=0;" parent="ljIQnTwFFSGdK2bvqgEi-97" vertex="1">
          <mxGeometry x="75" width="160" height="60" as="geometry" />
        </mxCell>
        <mxCell id="ljIQnTwFFSGdK2bvqgEi-30" value="AnalysisRunner" style="whiteSpace=wrap;html=1;rounded=0;rotation=0;" parent="ljIQnTwFFSGdK2bvqgEi-97" vertex="1">
          <mxGeometry x="95" y="110" width="120" height="60" as="geometry" />
        </mxCell>
        <mxCell id="ljIQnTwFFSGdK2bvqgEi-32" value="IndirectAnalysisRunner" style="whiteSpace=wrap;html=1;rounded=0;rotation=0;" parent="ljIQnTwFFSGdK2bvqgEi-97" vertex="1">
          <mxGeometry x="170" y="220" width="140" height="60" as="geometry" />
        </mxCell>
        <mxCell id="ljIQnTwFFSGdK2bvqgEi-35" value="DirectAnalysisRunner" style="whiteSpace=wrap;html=1;rounded=0;rotation=0;" parent="ljIQnTwFFSGdK2bvqgEi-97" vertex="1">
          <mxGeometry y="220" width="150" height="60" as="geometry" />
        </mxCell>
        <mxCell id="ljIQnTwFFSGdK2bvqgEi-31" value="" style="edgeStyle=orthogonalEdgeStyle;rounded=0;orthogonalLoop=1;jettySize=auto;html=1;" parent="ljIQnTwFFSGdK2bvqgEi-97" source="ljIQnTwFFSGdK2bvqgEi-28" target="ljIQnTwFFSGdK2bvqgEi-30" edge="1">
          <mxGeometry relative="1" as="geometry" />
        </mxCell>
        <mxCell id="ljIQnTwFFSGdK2bvqgEi-33" value="" style="edgeStyle=orthogonalEdgeStyle;rounded=0;orthogonalLoop=1;jettySize=auto;html=1;" parent="ljIQnTwFFSGdK2bvqgEi-97" source="ljIQnTwFFSGdK2bvqgEi-30" target="ljIQnTwFFSGdK2bvqgEi-32" edge="1">
          <mxGeometry relative="1" as="geometry" />
        </mxCell>
        <mxCell id="ljIQnTwFFSGdK2bvqgEi-36" style="edgeStyle=orthogonalEdgeStyle;rounded=0;orthogonalLoop=1;jettySize=auto;html=1;" parent="ljIQnTwFFSGdK2bvqgEi-97" source="ljIQnTwFFSGdK2bvqgEi-30" target="ljIQnTwFFSGdK2bvqgEi-35" edge="1">
          <mxGeometry relative="1" as="geometry" />
        </mxCell>
        <mxCell id="ljIQnTwFFSGdK2bvqgEi-14" value="AnalysisConfigData" style="whiteSpace=wrap;html=1;rounded=0;rotation=0;" parent="ljIQnTwFFSGdK2bvqgEi-77" vertex="1">
          <mxGeometry x="730" y="510" width="240" height="60" as="geometry" />
        </mxCell>
        <mxCell id="ljIQnTwFFSGdK2bvqgEi-46" value="AnalysisConfigDataReader" style="whiteSpace=wrap;html=1;rounded=0;rotation=0;" parent="ljIQnTwFFSGdK2bvqgEi-77" vertex="1">
          <mxGeometry x="750" y="420" width="200" height="60" as="geometry" />
        </mxCell>
        <mxCell id="ljIQnTwFFSGdK2bvqgEi-54" style="edgeStyle=orthogonalEdgeStyle;rounded=0;orthogonalLoop=1;jettySize=auto;html=1;" parent="ljIQnTwFFSGdK2bvqgEi-77" source="ljIQnTwFFSGdK2bvqgEi-46" target="ljIQnTwFFSGdK2bvqgEi-14" edge="1">
          <mxGeometry relative="1" as="geometry" />
        </mxCell>
        <mxCell id="Z59CMIi-VY8A_9yOZK_S-1" value="RA2CE HANDLER" style="rounded=0;whiteSpace=wrap;html=1;rotation=0;" vertex="1" parent="ljIQnTwFFSGdK2bvqgEi-77">
          <mxGeometry x="400" y="150" width="120" height="60" as="geometry" />
        </mxCell>
        <mxCell id="9qk-Bt4W44y3nDuAmLPf-1" style="edgeStyle=orthogonalEdgeStyle;rounded=0;orthogonalLoop=1;jettySize=auto;html=1;entryX=0.5;entryY=0;entryDx=0;entryDy=0;" edge="1" parent="ljIQnTwFFSGdK2bvqgEi-77" source="Z59CMIi-VY8A_9yOZK_S-2" target="Z59CMIi-VY8A_9yOZK_S-1">
          <mxGeometry relative="1" as="geometry" />
        </mxCell>
        <mxCell id="Z59CMIi-VY8A_9yOZK_S-2" value="MAIN" style="rounded=0;whiteSpace=wrap;html=1;rotation=0;" vertex="1" parent="ljIQnTwFFSGdK2bvqgEi-77">
          <mxGeometry x="400" y="50" width="120" height="60" as="geometry" />
        </mxCell>
      </root>
    </mxGraphModel>
  </diagram>
  <diagram id="g5gq4qHL1uzl4XZIBAZN" name="ConfigWrapper">
    <mxGraphModel dx="1434" dy="790" grid="1" gridSize="10" guides="1" tooltips="1" connect="1" arrows="1" fold="1" page="1" pageScale="1" pageWidth="1100" pageHeight="850" math="0" shadow="0">
      <root>
        <mxCell id="0" />
        <mxCell id="1" parent="0" />
        <mxCell id="0GZiVuG526R9PfzZzMAX-50" value="" style="group;rotation=0;" parent="1" vertex="1" connectable="0">
          <mxGeometry x="280" y="260" width="520" height="290" as="geometry" />
        </mxCell>
        <mxCell id="0GZiVuG526R9PfzZzMAX-51" value="ConfigWrapper" style="rounded=0;whiteSpace=wrap;html=1;rotation=0;" parent="0GZiVuG526R9PfzZzMAX-50" vertex="1">
          <mxGeometry x="200" width="120" height="60" as="geometry" />
        </mxCell>
        <mxCell id="0GZiVuG526R9PfzZzMAX-52" value="AnalysisConfig" style="rounded=0;whiteSpace=wrap;html=1;rotation=0;" parent="0GZiVuG526R9PfzZzMAX-50" vertex="1">
          <mxGeometry x="70" y="120" width="120" height="60" as="geometry" />
        </mxCell>
        <mxCell id="0GZiVuG526R9PfzZzMAX-53" value="NetworkConfig" style="whiteSpace=wrap;html=1;rounded=0;rotation=0;" parent="0GZiVuG526R9PfzZzMAX-50" vertex="1">
          <mxGeometry x="320" y="120" width="120" height="60" as="geometry" />
        </mxCell>
        <mxCell id="0GZiVuG526R9PfzZzMAX-54" value="DirectAnalysis" style="rounded=0;whiteSpace=wrap;html=1;rotation=0;" parent="0GZiVuG526R9PfzZzMAX-50" vertex="1">
          <mxGeometry y="230" width="120" height="60" as="geometry" />
        </mxCell>
        <mxCell id="0GZiVuG526R9PfzZzMAX-55" value="IndirectAnalysis" style="rounded=0;whiteSpace=wrap;html=1;rotation=0;" parent="0GZiVuG526R9PfzZzMAX-50" vertex="1">
          <mxGeometry x="130" y="230" width="120" height="60" as="geometry" />
        </mxCell>
        <mxCell id="0GZiVuG526R9PfzZzMAX-56" value="Network" style="rounded=0;whiteSpace=wrap;html=1;rotation=0;" parent="0GZiVuG526R9PfzZzMAX-50" vertex="1">
          <mxGeometry x="260" y="230" width="120" height="60" as="geometry" />
        </mxCell>
        <mxCell id="0GZiVuG526R9PfzZzMAX-57" value="Hazard" style="rounded=0;whiteSpace=wrap;html=1;rotation=0;" parent="0GZiVuG526R9PfzZzMAX-50" vertex="1">
          <mxGeometry x="400" y="230" width="120" height="60" as="geometry" />
        </mxCell>
        <mxCell id="0GZiVuG526R9PfzZzMAX-58" style="edgeStyle=orthogonalEdgeStyle;rounded=0;orthogonalLoop=1;jettySize=auto;html=1;exitX=0.5;exitY=1;exitDx=0;exitDy=0;" parent="0GZiVuG526R9PfzZzMAX-50" source="0GZiVuG526R9PfzZzMAX-51" target="0GZiVuG526R9PfzZzMAX-52" edge="1">
          <mxGeometry relative="1" as="geometry">
            <Array as="points">
              <mxPoint x="260" y="90" />
              <mxPoint x="130" y="90" />
            </Array>
          </mxGeometry>
        </mxCell>
        <mxCell id="0GZiVuG526R9PfzZzMAX-59" value="" style="edgeStyle=orthogonalEdgeStyle;rounded=0;orthogonalLoop=1;jettySize=auto;html=1;" parent="0GZiVuG526R9PfzZzMAX-50" source="0GZiVuG526R9PfzZzMAX-51" target="0GZiVuG526R9PfzZzMAX-53" edge="1">
          <mxGeometry relative="1" as="geometry">
            <Array as="points" />
          </mxGeometry>
        </mxCell>
        <mxCell id="0GZiVuG526R9PfzZzMAX-60" style="edgeStyle=orthogonalEdgeStyle;rounded=0;orthogonalLoop=1;jettySize=auto;html=1;exitX=0.5;exitY=1;exitDx=0;exitDy=0;" parent="0GZiVuG526R9PfzZzMAX-50" source="0GZiVuG526R9PfzZzMAX-52" target="0GZiVuG526R9PfzZzMAX-54" edge="1">
          <mxGeometry relative="1" as="geometry" />
        </mxCell>
        <mxCell id="0GZiVuG526R9PfzZzMAX-61" style="edgeStyle=orthogonalEdgeStyle;rounded=0;orthogonalLoop=1;jettySize=auto;html=1;exitX=0.5;exitY=1;exitDx=0;exitDy=0;" parent="0GZiVuG526R9PfzZzMAX-50" source="0GZiVuG526R9PfzZzMAX-52" target="0GZiVuG526R9PfzZzMAX-55" edge="1">
          <mxGeometry relative="1" as="geometry" />
        </mxCell>
        <mxCell id="0GZiVuG526R9PfzZzMAX-62" style="edgeStyle=orthogonalEdgeStyle;rounded=0;orthogonalLoop=1;jettySize=auto;html=1;exitX=0.5;exitY=1;exitDx=0;exitDy=0;" parent="0GZiVuG526R9PfzZzMAX-50" source="0GZiVuG526R9PfzZzMAX-53" target="0GZiVuG526R9PfzZzMAX-56" edge="1">
          <mxGeometry relative="1" as="geometry" />
        </mxCell>
        <mxCell id="0GZiVuG526R9PfzZzMAX-63" style="edgeStyle=orthogonalEdgeStyle;rounded=0;orthogonalLoop=1;jettySize=auto;html=1;exitX=0.5;exitY=1;exitDx=0;exitDy=0;" parent="0GZiVuG526R9PfzZzMAX-50" source="0GZiVuG526R9PfzZzMAX-53" target="0GZiVuG526R9PfzZzMAX-57" edge="1">
          <mxGeometry relative="1" as="geometry" />
        </mxCell>
      </root>
    </mxGraphModel>
  </diagram>
  <diagram id="MX2OoZ_W4mvXJoh6Ynyb" name="Actors">
    <mxGraphModel dx="1434" dy="790" grid="1" gridSize="10" guides="1" tooltips="1" connect="1" arrows="1" fold="1" page="1" pageScale="1" pageWidth="1100" pageHeight="850" math="0" shadow="0">
      <root>
        <mxCell id="0" />
        <mxCell id="1" parent="0" />
        <mxCell id="FUOQjl5owTOAqfktACT8-2" value="main" style="shape=cube;whiteSpace=wrap;html=1;boundedLbl=1;backgroundOutline=1;darkOpacity=0.05;darkOpacity2=0.1;flipH=1;" parent="1" vertex="1">
          <mxGeometry x="230" y="140" width="100" height="180" as="geometry" />
        </mxCell>
        <mxCell id="FUOQjl5owTOAqfktACT8-4" style="edgeStyle=orthogonalEdgeStyle;rounded=0;orthogonalLoop=1;jettySize=auto;html=1;" parent="1" source="FUOQjl5owTOAqfktACT8-3" target="FUOQjl5owTOAqfktACT8-2" edge="1">
          <mxGeometry relative="1" as="geometry" />
        </mxCell>
        <mxCell id="FUOQjl5owTOAqfktACT8-3" value="Actor" style="shape=umlActor;verticalLabelPosition=bottom;verticalAlign=top;html=1;outlineConnect=0;" parent="1" vertex="1">
          <mxGeometry x="130" y="200" width="30" height="60" as="geometry" />
        </mxCell>
      </root>
    </mxGraphModel>
  </diagram>
  <diagram id="xYe5eCpaOpIaSW05rS1Y" name="ra2ce_handler">
    <mxGraphModel dx="1434" dy="790" grid="1" gridSize="10" guides="1" tooltips="1" connect="1" arrows="1" fold="1" page="1" pageScale="1" pageWidth="1100" pageHeight="850" math="0" shadow="0">
      <root>
        <mxCell id="0" />
        <mxCell id="1" parent="0" />
        <mxCell id="5x0HU4ocWG2Yf5jdy6bk-2" value="RA2CE HANDLER" style="rounded=0;whiteSpace=wrap;html=1;rotation=0;" parent="1" vertex="1">
          <mxGeometry x="410" y="235" width="120" height="60" as="geometry" />
        </mxCell>
        <mxCell id="5x0HU4ocWG2Yf5jdy6bk-3" value="ConfigFactory" style="rounded=0;whiteSpace=wrap;html=1;rotation=0;" parent="1" vertex="1">
          <mxGeometry x="682" y="345" width="120" height="60" as="geometry" />
        </mxCell>
        <mxCell id="5x0HU4ocWG2Yf5jdy6bk-4" style="edgeStyle=orthogonalEdgeStyle;rounded=0;orthogonalLoop=1;jettySize=auto;html=1;entryX=0.5;entryY=0;entryDx=0;entryDy=0;" parent="1" source="5x0HU4ocWG2Yf5jdy6bk-2" target="5x0HU4ocWG2Yf5jdy6bk-3" edge="1">
          <mxGeometry relative="1" as="geometry" />
        </mxCell>
        <mxCell id="5x0HU4ocWG2Yf5jdy6bk-5" value="" style="edgeStyle=orthogonalEdgeStyle;rounded=0;orthogonalLoop=1;jettySize=auto;html=1;" parent="1" source="5x0HU4ocWG2Yf5jdy6bk-2" target="5x0HU4ocWG2Yf5jdy6bk-25" edge="1">
          <mxGeometry relative="1" as="geometry" />
        </mxCell>
        <mxCell id="5x0HU4ocWG2Yf5jdy6bk-6" value="Ra2ceLogger" style="whiteSpace=wrap;html=1;rounded=0;rotation=0;" parent="1" vertex="1">
          <mxGeometry x="410" y="345" width="120" height="60" as="geometry" />
        </mxCell>
        <mxCell id="5x0HU4ocWG2Yf5jdy6bk-7" style="edgeStyle=orthogonalEdgeStyle;rounded=0;orthogonalLoop=1;jettySize=auto;html=1;exitX=0.5;exitY=1;exitDx=0;exitDy=0;" parent="1" source="5x0HU4ocWG2Yf5jdy6bk-2" target="5x0HU4ocWG2Yf5jdy6bk-6" edge="1">
          <mxGeometry relative="1" as="geometry" />
        </mxCell>
        <mxCell id="5x0HU4ocWG2Yf5jdy6bk-8" value="" style="edgeStyle=orthogonalEdgeStyle;rounded=0;orthogonalLoop=1;jettySize=auto;html=1;" parent="1" source="5x0HU4ocWG2Yf5jdy6bk-3" target="5x0HU4ocWG2Yf5jdy6bk-34" edge="1">
          <mxGeometry relative="1" as="geometry">
            <Array as="points">
              <mxPoint x="743" y="425" />
              <mxPoint x="960" y="425" />
            </Array>
          </mxGeometry>
        </mxCell>
        <mxCell id="5x0HU4ocWG2Yf5jdy6bk-9" value="" style="edgeStyle=orthogonalEdgeStyle;rounded=0;orthogonalLoop=1;jettySize=auto;html=1;" parent="1" source="5x0HU4ocWG2Yf5jdy6bk-3" target="5x0HU4ocWG2Yf5jdy6bk-15" edge="1">
          <mxGeometry relative="1" as="geometry">
            <Array as="points">
              <mxPoint x="743" y="425" />
              <mxPoint x="598" y="425" />
            </Array>
          </mxGeometry>
        </mxCell>
        <mxCell id="5x0HU4ocWG2Yf5jdy6bk-10" style="edgeStyle=orthogonalEdgeStyle;rounded=0;orthogonalLoop=1;jettySize=auto;html=1;exitX=0.5;exitY=1;exitDx=0;exitDy=0;" parent="1" source="5x0HU4ocWG2Yf5jdy6bk-11" target="5x0HU4ocWG2Yf5jdy6bk-2" edge="1">
          <mxGeometry relative="1" as="geometry" />
        </mxCell>
        <mxCell id="5x0HU4ocWG2Yf5jdy6bk-11" value="MAIN" style="rounded=0;whiteSpace=wrap;html=1;rotation=0;" parent="1" vertex="1">
          <mxGeometry x="410" y="135" width="120" height="60" as="geometry" />
        </mxCell>
        <mxCell id="5x0HU4ocWG2Yf5jdy6bk-13" value="" style="group" parent="1" vertex="1" connectable="0">
          <mxGeometry x="360" y="455" width="492" height="260" as="geometry" />
        </mxCell>
        <mxCell id="5x0HU4ocWG2Yf5jdy6bk-14" value="AnalysisWithNetworkIniConfigData" style="whiteSpace=wrap;html=1;rounded=0;rotation=0;" parent="5x0HU4ocWG2Yf5jdy6bk-13" vertex="1">
          <mxGeometry x="252" y="200" width="240" height="60" as="geometry" />
        </mxCell>
        <mxCell id="5x0HU4ocWG2Yf5jdy6bk-15" value="AnalysisConfigDataReaderFactory" style="whiteSpace=wrap;html=1;rounded=0;rotation=0;" parent="5x0HU4ocWG2Yf5jdy6bk-13" vertex="1">
          <mxGeometry x="122" width="230" height="60" as="geometry" />
        </mxCell>
        <mxCell id="5x0HU4ocWG2Yf5jdy6bk-16" value="WithNetworkConfigReader" style="whiteSpace=wrap;html=1;rounded=0;rotation=0;" parent="5x0HU4ocWG2Yf5jdy6bk-13" vertex="1">
          <mxGeometry x="272" y="110" width="200" height="60" as="geometry" />
        </mxCell>
        <mxCell id="5x0HU4ocWG2Yf5jdy6bk-17" value="WithoutNetworkConfigReader" style="whiteSpace=wrap;html=1;rounded=0;rotation=0;" parent="5x0HU4ocWG2Yf5jdy6bk-13" vertex="1">
          <mxGeometry x="22" y="110" width="200" height="60" as="geometry" />
        </mxCell>
        <mxCell id="5x0HU4ocWG2Yf5jdy6bk-18" value="AnalysisWithoutNetworkIniConfigData" style="whiteSpace=wrap;html=1;rounded=0;rotation=0;" parent="5x0HU4ocWG2Yf5jdy6bk-13" vertex="1">
          <mxGeometry y="200" width="240" height="60" as="geometry" />
        </mxCell>
        <mxCell id="5x0HU4ocWG2Yf5jdy6bk-19" style="edgeStyle=orthogonalEdgeStyle;rounded=0;orthogonalLoop=1;jettySize=auto;html=1;" parent="5x0HU4ocWG2Yf5jdy6bk-13" source="5x0HU4ocWG2Yf5jdy6bk-16" target="5x0HU4ocWG2Yf5jdy6bk-14" edge="1">
          <mxGeometry relative="1" as="geometry" />
        </mxCell>
        <mxCell id="5x0HU4ocWG2Yf5jdy6bk-20" value="" style="edgeStyle=orthogonalEdgeStyle;rounded=0;orthogonalLoop=1;jettySize=auto;html=1;" parent="5x0HU4ocWG2Yf5jdy6bk-13" source="5x0HU4ocWG2Yf5jdy6bk-15" target="5x0HU4ocWG2Yf5jdy6bk-16" edge="1">
          <mxGeometry relative="1" as="geometry" />
        </mxCell>
        <mxCell id="5x0HU4ocWG2Yf5jdy6bk-21" value="" style="edgeStyle=orthogonalEdgeStyle;rounded=0;orthogonalLoop=1;jettySize=auto;html=1;" parent="5x0HU4ocWG2Yf5jdy6bk-13" source="5x0HU4ocWG2Yf5jdy6bk-15" target="5x0HU4ocWG2Yf5jdy6bk-16" edge="1">
          <mxGeometry relative="1" as="geometry" />
        </mxCell>
        <mxCell id="5x0HU4ocWG2Yf5jdy6bk-22" value="" style="edgeStyle=orthogonalEdgeStyle;rounded=0;orthogonalLoop=1;jettySize=auto;html=1;" parent="5x0HU4ocWG2Yf5jdy6bk-13" source="5x0HU4ocWG2Yf5jdy6bk-15" target="5x0HU4ocWG2Yf5jdy6bk-17" edge="1">
          <mxGeometry relative="1" as="geometry" />
        </mxCell>
        <mxCell id="5x0HU4ocWG2Yf5jdy6bk-23" style="edgeStyle=orthogonalEdgeStyle;rounded=0;orthogonalLoop=1;jettySize=auto;html=1;exitX=0.5;exitY=1;exitDx=0;exitDy=0;" parent="5x0HU4ocWG2Yf5jdy6bk-13" source="5x0HU4ocWG2Yf5jdy6bk-17" target="5x0HU4ocWG2Yf5jdy6bk-18" edge="1">
          <mxGeometry relative="1" as="geometry" />
        </mxCell>
        <mxCell id="5x0HU4ocWG2Yf5jdy6bk-24" value="" style="group" parent="1" vertex="1" connectable="0">
          <mxGeometry x="60" y="345" width="310" height="280" as="geometry" />
        </mxCell>
        <mxCell id="5x0HU4ocWG2Yf5jdy6bk-25" value="AnalysisRunnerFactory" style="whiteSpace=wrap;html=1;rounded=0;rotation=0;" parent="5x0HU4ocWG2Yf5jdy6bk-24" vertex="1">
          <mxGeometry x="75" width="160" height="60" as="geometry" />
        </mxCell>
        <mxCell id="5x0HU4ocWG2Yf5jdy6bk-26" value="AnalysisRunner" style="whiteSpace=wrap;html=1;rounded=0;rotation=0;" parent="5x0HU4ocWG2Yf5jdy6bk-24" vertex="1">
          <mxGeometry x="95" y="110" width="120" height="60" as="geometry" />
        </mxCell>
        <mxCell id="5x0HU4ocWG2Yf5jdy6bk-27" value="IndirectAnalysisRunner" style="whiteSpace=wrap;html=1;rounded=0;rotation=0;" parent="5x0HU4ocWG2Yf5jdy6bk-24" vertex="1">
          <mxGeometry x="170" y="220" width="140" height="60" as="geometry" />
        </mxCell>
        <mxCell id="5x0HU4ocWG2Yf5jdy6bk-28" value="DirectAnalysisRunner" style="whiteSpace=wrap;html=1;rounded=0;rotation=0;" parent="5x0HU4ocWG2Yf5jdy6bk-24" vertex="1">
          <mxGeometry y="220" width="150" height="60" as="geometry" />
        </mxCell>
        <mxCell id="5x0HU4ocWG2Yf5jdy6bk-29" value="" style="edgeStyle=orthogonalEdgeStyle;rounded=0;orthogonalLoop=1;jettySize=auto;html=1;" parent="5x0HU4ocWG2Yf5jdy6bk-24" source="5x0HU4ocWG2Yf5jdy6bk-25" target="5x0HU4ocWG2Yf5jdy6bk-26" edge="1">
          <mxGeometry relative="1" as="geometry" />
        </mxCell>
        <mxCell id="5x0HU4ocWG2Yf5jdy6bk-30" value="" style="edgeStyle=orthogonalEdgeStyle;rounded=0;orthogonalLoop=1;jettySize=auto;html=1;" parent="5x0HU4ocWG2Yf5jdy6bk-24" source="5x0HU4ocWG2Yf5jdy6bk-26" target="5x0HU4ocWG2Yf5jdy6bk-27" edge="1">
          <mxGeometry relative="1" as="geometry" />
        </mxCell>
        <mxCell id="5x0HU4ocWG2Yf5jdy6bk-31" style="edgeStyle=orthogonalEdgeStyle;rounded=0;orthogonalLoop=1;jettySize=auto;html=1;" parent="5x0HU4ocWG2Yf5jdy6bk-24" source="5x0HU4ocWG2Yf5jdy6bk-26" target="5x0HU4ocWG2Yf5jdy6bk-28" edge="1">
          <mxGeometry relative="1" as="geometry" />
        </mxCell>
        <mxCell id="5x0HU4ocWG2Yf5jdy6bk-32" value="" style="group" parent="1" vertex="1" connectable="0">
          <mxGeometry x="860" y="565" width="200" height="150" as="geometry" />
        </mxCell>
        <mxCell id="5x0HU4ocWG2Yf5jdy6bk-33" value="NetworkIniConfigData" style="whiteSpace=wrap;html=1;rounded=0;rotation=0;" parent="5x0HU4ocWG2Yf5jdy6bk-32" vertex="1">
          <mxGeometry x="25" y="90" width="150" height="60" as="geometry" />
        </mxCell>
        <mxCell id="5x0HU4ocWG2Yf5jdy6bk-34" value="NetworkIniConfigDataReader" style="whiteSpace=wrap;html=1;rounded=0;rotation=0;" parent="5x0HU4ocWG2Yf5jdy6bk-32" vertex="1">
          <mxGeometry width="200" height="60" as="geometry" />
        </mxCell>
        <mxCell id="5x0HU4ocWG2Yf5jdy6bk-35" style="edgeStyle=orthogonalEdgeStyle;rounded=0;orthogonalLoop=1;jettySize=auto;html=1;" parent="5x0HU4ocWG2Yf5jdy6bk-32" source="5x0HU4ocWG2Yf5jdy6bk-34" target="5x0HU4ocWG2Yf5jdy6bk-33" edge="1">
          <mxGeometry relative="1" as="geometry" />
        </mxCell>
      </root>
    </mxGraphModel>
  </diagram>
</mxfile>
